<?xml version="1.0" standalone="no"?>
<!DOCTYPE svg PUBLIC "-//W3C//DTD SVG 20010904//EN"
 "http://www.w3.org/TR/2001/REC-SVG-20010904/DTD/svg10.dtd">
<svg version="1.0" xmlns="http://www.w3.org/2000/svg"
 width="739.000000pt" height="739.000000pt" viewBox="0 0 739.000000 739.000000"
 preserveAspectRatio="xMidYMid meet">
<metadata>
Created by potrace 1.14, written by Peter Selinger 2001-2017
</metadata>
<g transform="translate(0.000000,739.000000) scale(0.100000,-0.100000)"
fill="#000000" stroke="none">
<path d="M2113 7379 c-29 -4 -64 -10 -78 -13 -14 -4 -28 -7 -32 -7 -13 -2 -93
-48 -152 -89 -105 -71 -171 -147 -260 -297 -112 -188 -164 -362 -165 -548 -1
-187 25 -291 107 -420 91 -145 125 -196 170 -255 66 -86 80 -99 162 -146 194
-111 229 -120 450 -120 232 1 227 -3 240 183 2 34 9 72 15 83 7 12 23 61 38
109 23 76 25 102 24 221 -2 158 15 240 49 240 19 0 20 -4 14 -77 -3 -42 -8
-80 -11 -84 -2 -5 -9 -75 -14 -156 -11 -171 -12 -179 -47 -293 -23 -73 -26
-100 -24 -190 5 -188 9 -194 63 -82 45 92 78 118 188 147 87 23 83 6 53 210
-6 42 -6 96 1 255 4 92 19 150 39 150 5 0 38 14 74 31 35 17 67 29 69 26 3 -3
-15 -25 -39 -50 -59 -62 -74 -116 -76 -284 -2 -134 6 -173 34 -173 31 0 104
92 182 229 26 45 64 148 88 237 3 10 115 2 134 -11 4 -2 2 -32 -6 -67 -17 -80
-23 -244 -12 -327 22 -157 43 -223 85 -271 12 -14 48 -62 79 -108 71 -104 159
-198 250 -266 61 -46 180 -120 195 -121 3 0 14 -6 25 -12 38 -21 174 -62 242
-74 72 -11 238 -15 269 -5 11 3 35 8 54 11 51 9 174 51 228 79 445 227 661
818 484 1327 -80 229 -215 393 -403 489 -60 30 -184 76 -196 72 -2 0 -16 3
-33 8 -93 27 -302 29 -440 6 -250 -44 -463 -164 -619 -351 -29 -35 -122 -190
-128 -213 -5 -23 -8 -24 -71 -18 -117 11 -112 7 -113 95 -1 94 -5 159 -13 197
-3 16 -8 47 -12 69 -8 60 -30 129 -57 183 -36 72 -174 258 -216 291 -87 68
-297 154 -436 177 -48 8 -395 10 -452 3z m899 -754 c39 -16 93 -73 110 -114
18 -45 22 -111 6 -111 -40 1 -58 13 -58 40 0 18 -8 33 -22 43 -13 9 -40 31
-62 51 -31 29 -42 33 -58 25 -10 -5 -22 -8 -27 -5 -5 3 -32 -19 -60 -49 -47
-50 -82 -67 -94 -47 -10 15 37 94 73 125 65 54 130 69 192 42z"/>
<path d="M3276 5548 c-87 -134 -94 -149 -120 -293 -3 -17 -10 -55 -16 -85 -6
-30 -13 -66 -16 -80 -7 -31 -12 -161 -15 -358 -1 -84 -5 -154 -9 -157 -3 -2
-16 -2 -27 1 -14 4 -19 13 -17 31 1 13 5 84 8 156 22 471 15 420 96 667 46
138 58 125 -112 126 l-148 0 -67 -43 c-38 -24 -89 -57 -114 -73 -48 -29 -49
-32 -65 -131 -3 -14 -21 -95 -40 -180 -19 -85 -37 -165 -40 -179 -3 -14 -9
-42 -15 -63 -9 -34 -6 -45 48 -150 31 -61 66 -127 78 -145 21 -34 24 -35 136
-16 23 3 28 -2 42 -38 9 -23 16 -42 14 -43 -1 -1 -60 -26 -132 -55 -71 -29
-135 -58 -141 -66 -5 -7 -46 -51 -90 -99 -84 -92 -87 -99 -100 -224 -16 -152
-4 -501 20 -554 19 -44 59 -175 55 -180 -2 -2 1 -10 7 -18 6 -8 19 -39 29 -69
10 -30 47 -124 82 -209 l65 -154 -14 -86 -14 -85 -162 -62 c-154 -59 -251
-101 -262 -113 -3 -3 -34 -21 -70 -39 -106 -53 -194 -100 -205 -109 -5 -5 -53
-38 -105 -74 -140 -95 -165 -113 -168 -121 -2 -5 -10 -8 -18 -8 -8 0 -14 -4
-14 -10 0 -5 -4 -10 -10 -10 -5 0 -18 -7 -27 -15 -10 -8 -26 -20 -35 -27 -12
-9 -18 -35 -23 -93 -4 -44 -8 -87 -10 -95 -2 -8 -7 -48 -10 -87 -3 -40 -8 -82
-10 -93 -4 -19 9 -74 50 -220 8 -30 19 -80 25 -110 5 -30 15 -77 20 -105 6
-27 13 -66 16 -85 2 -19 6 -42 9 -50 2 -8 7 -33 10 -55 4 -22 10 -56 15 -75 5
-19 12 -53 16 -75 7 -41 12 -504 6 -540 -3 -15 -21 -28 -65 -44 -34 -14 -95
-39 -135 -58 -39 -18 -79 -33 -87 -33 -8 0 -15 -5 -15 -11 0 -5 -4 -8 -9 -5
-5 3 -20 -3 -33 -13 -13 -11 -52 -36 -86 -56 -60 -35 -62 -38 -57 -68 11 -56
12 -61 19 -99 l8 -37 432 4 c237 2 478 4 535 4 94 1 103 3 98 19 -3 9 -33 96
-67 192 -93 265 -109 312 -114 345 -2 17 -23 124 -47 240 l-42 210 52 160 c29
88 56 170 61 181 6 16 -3 57 -31 145 -48 151 -63 201 -64 214 0 5 14 10 30 11
57 2 240 15 275 19 19 3 73 7 120 10 89 6 105 8 130 18 8 3 35 11 60 17 25 7
73 21 108 32 34 11 68 21 75 22 6 2 19 6 27 9 34 13 302 88 304 85 2 -2 88
-121 191 -266 l189 -263 130 -97 c72 -53 133 -99 136 -102 3 -3 32 -25 65 -50
33 -25 62 -47 65 -50 6 -7 147 -71 163 -74 7 -2 39 -15 72 -30 33 -15 70 -31
83 -36 12 -6 32 -14 45 -20 12 -5 49 -21 82 -35 47 -20 306 -101 418 -130 9
-3 25 -7 35 -10 53 -14 409 -117 422 -122 8 -3 22 -7 30 -9 8 -2 42 -11 75
-20 l61 -18 32 -91 c18 -50 32 -94 32 -97 0 -3 -61 -59 -135 -124 -85 -75
-133 -125 -130 -134 2 -8 6 -37 10 -65 3 -27 10 -53 14 -58 4 -4 34 -10 67
-12 32 -3 79 -7 104 -10 25 -2 77 -7 116 -10 l71 -6 69 48 c38 26 71 51 72 55
2 4 8 8 14 8 8 0 192 132 208 150 3 3 53 41 112 85 67 50 106 85 103 93 -3 8
-61 96 -129 196 l-124 181 -123 33 c-68 18 -131 34 -139 36 -8 2 -130 61 -270
131 l-255 126 -106 104 c-108 106 -106 105 -209 120 -19 2 -44 6 -55 9 -11 2
-42 7 -70 10 -27 4 -90 14 -140 22 -49 9 -101 16 -115 17 -17 2 -30 13 -42 37
-30 60 -145 305 -167 356 -12 27 -26 56 -31 64 -5 8 -16 29 -24 47 -8 18 -52
90 -98 160 -75 113 -90 145 -132 273 -27 80 -52 154 -56 165 -5 11 -13 35 -19
54 -6 18 -48 91 -93 161 l-82 128 -81 40 -80 40 -53 159 -54 159 25 129 c61
311 79 412 92 520 4 28 8 61 10 75 2 14 7 48 11 75 3 28 8 58 10 69 22 120 26
405 8 486 -8 36 -29 130 -45 210 -17 80 -35 165 -41 190 -5 25 -7 109 -3 187
3 83 2 150 -4 160 -11 22 -93 223 -112 276 -7 20 -16 37 -19 37 -4 0 -46 -60
-94 -132z"/>
</g>
</svg>
