<?xml version="1.0" standalone="no"?>
<!DOCTYPE svg PUBLIC "-//W3C//DTD SVG 20010904//EN"
 "http://www.w3.org/TR/2001/REC-SVG-20010904/DTD/svg10.dtd">
<svg version="1.0" xmlns="http://www.w3.org/2000/svg"
 width="192.000000pt" height="192.000000pt" viewBox="0 0 192.000000 192.000000"
 preserveAspectRatio="xMidYMid meet">
<metadata>
Created by potrace 1.14, written by Peter Selinger 2001-2017
</metadata>
<g transform="translate(0.000000,192.000000) scale(0.100000,-0.100000)"
fill="#000000" stroke="none">
<path d="M2 1848 l-1 -72 35 62 c18 34 34 67 34 72 0 18 -27 10 -43 -12 l-16
-23 6 23 c3 12 1 22 -5 22 -5 0 -10 -31 -10 -72z"/>
<path d="M125 1817 c-33 -68 -51 -117 -52 -146 l-2 -44 29 47 c17 26 30 50 30
55 0 4 20 45 45 91 25 46 45 87 45 92 0 4 -10 8 -22 8 -19 -1 -32 -19 -73
-103z"/>
<path d="M280 1901 c0 -11 -4 -22 -9 -25 -9 -6 -22 -46 -16 -46 2 0 18 20 35
45 29 42 30 45 10 45 -13 0 -20 -7 -20 -19z"/>
<path d="M865 1673 c-55 -13 -111 -36 -149 -62 -60 -42 -260 -241 -280 -279
-27 -53 -32 -153 -10 -209 10 -27 17 -57 16 -68 -2 -12 8 -38 22 -58 21 -31
24 -42 15 -64 -14 -38 -2 -98 27 -132 32 -38 30 -47 -8 -55 -43 -9 -89 -45
-134 -108 -21 -29 -62 -79 -91 -110 -29 -31 -53 -60 -53 -65 0 -4 -7 -16 -14
-26 -13 -16 -15 -16 -57 3 -24 11 -53 19 -64 19 -13 -1 -10 -4 10 -10 43 -12
110 -72 141 -125 14 -24 30 -44 34 -44 5 0 16 -24 25 -52 9 -29 21 -62 27 -72
5 -11 26 -50 44 -88 32 -63 37 -68 67 -67 27 0 29 2 12 9 -17 7 -14 9 13 9 20
1 31 -3 27 -9 -4 -6 29 -9 92 -9 54 1 86 4 70 6 -15 2 -25 9 -22 14 4 5 -8 9
-24 9 -34 0 -39 15 -20 52 8 16 17 19 42 14 18 -3 142 -8 277 -11 308 -8 397
-12 410 -20 16 -10 12 -43 -7 -54 -15 -9 -13 -10 14 -11 31 0 32 1 27 33 -4
17 -14 40 -23 49 -21 22 -71 35 -71 18 0 -9 -11 -10 -37 -5 -37 8 -115 11
-358 14 -193 3 -253 26 -236 89 5 15 3 37 -3 50 -7 18 -7 26 5 33 11 7 10 9
-5 9 -17 0 -16 4 9 30 36 37 25 39 -16 3 -16 -15 -45 -34 -64 -43 -18 -9 -43
-28 -55 -43 -16 -20 -29 -26 -58 -26 -20 0 -51 -2 -68 -6 -29 -7 -32 -4 -57
48 -31 63 -34 79 -11 70 14 -5 16 -2 10 22 -6 22 -4 26 8 22 10 -4 16 -1 16 7
0 8 16 16 40 20 22 3 39 11 37 17 -2 11 15 23 46 33 11 4 21 15 24 26 6 23 7
24 36 9 21 -11 21 -11 5 7 -21 24 -22 88 -1 80 9 -4 19 8 28 32 14 34 50 62
81 62 6 0 14 -20 17 -44 8 -54 36 -126 49 -126 6 0 7 10 4 23 -14 46 -24 132
-16 141 4 4 15 -7 24 -25 9 -19 26 -45 37 -59 20 -24 20 -24 9 -2 -6 13 -9 26
-7 29 7 6 54 -23 92 -57 55 -49 134 -63 202 -35 43 18 93 20 93 3 1 -7 17 5
36 27 26 30 37 36 43 26 5 -7 6 -22 4 -32 -3 -10 -2 -27 2 -36 12 -31 35 14
35 68 0 39 4 49 20 54 11 3 41 35 66 71 25 35 53 64 62 64 15 1 15 2 0 11 -14
8 -16 18 -11 57 3 26 13 57 21 70 13 20 13 22 -2 16 -11 -4 -16 -1 -16 10 0 9
-4 16 -10 16 -6 0 -10 -26 -10 -59 0 -108 -45 -194 -135 -261 -78 -57 -126
-73 -205 -66 -59 5 -63 4 -46 -9 11 -8 27 -15 35 -15 13 -1 12 -3 -3 -11 -10
-7 -35 -8 -58 -5 -46 8 -95 36 -78 46 6 4 -7 12 -29 18 -42 13 -85 60 -97 106
-4 18 -13 26 -29 26 -26 0 -40 14 -49 53 -5 19 -3 27 7 27 8 0 21 8 30 18 18
19 27 78 12 75 -6 -1 -10 23 -10 55 0 55 -1 56 -32 64 -18 5 -33 13 -33 18 0
11 68 8 88 -3 15 -10 14 -14 16 59 0 33 7 68 14 77 11 13 9 17 -15 29 -15 7
-28 20 -28 28 0 8 -4 18 -10 22 -5 4 -6 10 -2 14 4 4 16 -2 27 -14 12 -13 33
-22 50 -22 16 0 33 -6 37 -13 4 -8 26 -18 48 -23 54 -13 110 5 109 35 -1 18 4
21 25 19 21 -2 25 -7 23 -28 l-4 -25 29 28 c35 33 67 28 60 -9 -3 -16 0 -21
11 -17 8 3 18 0 23 -8 6 -10 11 -11 17 -3 4 6 21 14 39 17 25 5 35 2 43 -11 7
-13 8 -10 4 14 -5 28 -3 31 28 41 18 5 32 15 31 21 -2 6 7 17 20 23 19 11 20
10 9 -3 -10 -13 -9 -16 7 -21 19 -5 22 -17 34 -197 3 -37 5 -41 12 -22 12 36
30 20 35 -34 5 -44 6 -46 12 -19 4 18 0 44 -8 64 -19 46 -9 96 31 146 68 87
74 104 53 162 l-12 33 -20 -37 c-22 -38 -51 -62 -61 -51 -4 4 3 20 15 36 24
32 20 55 -7 45 -13 -5 -15 -2 -9 18 21 69 18 189 -4 189 -6 0 -10 -7 -10 -15
0 -8 -13 -29 -28 -46 l-28 -31 4 41 c4 40 -10 57 -22 26 -10 -26 -37 -16 -80
30 -47 51 -127 89 -169 81 -15 -3 -53 1 -84 9 -56 15 -99 17 -138 8z m72 -434
c22 -8 24 -12 13 -19 -17 -11 -47 -13 -37 -3 4 3 2 12 -4 20 -14 16 -9 16 28
2z m-227 -50 c0 -5 -4 -9 -10 -9 -5 0 -10 7 -10 16 0 8 5 12 10 9 6 -3 10 -10
10 -16z m-60 -209 c0 -5 -4 -10 -10 -10 -5 0 -10 5 -10 10 0 6 5 10 10 10 6 0
10 -4 10 -10z m20 -40 c14 0 18 -7 18 -30 -1 -19 -6 -30 -15 -30 -8 0 -13 6
-12 13 3 23 -1 38 -9 33 -4 -2 -9 -21 -10 -42 -2 -20 -5 -41 -8 -45 -2 -4 0
-10 4 -13 14 -8 9 -51 -5 -50 -7 1 -26 2 -42 3 -43 2 -101 63 -101 107 0 19 5
34 11 34 5 0 8 -4 5 -9 -14 -21 35 -101 61 -101 7 0 13 8 13 18 1 16 1 16 11
-1 19 -32 30 -7 24 48 -8 58 -1 79 22 71 8 -3 23 -6 33 -6z m-99 -65 c0 -13
-41 -19 -41 -7 0 11 20 22 33 18 5 -1 8 -6 8 -11z m17 -134 c10 -6 7 -10 -12
-13 -26 -5 -41 3 -29 16 9 8 25 7 41 -3z m59 -27 c-3 -4 -14 -3 -24 0 -15 6
-15 8 -3 16 16 10 39 -4 27 -16z m-137 1 c0 -12 -42 -45 -50 -40 -6 4 -10 -3
-10 -14 0 -14 -9 -23 -25 -27 -14 -3 -25 -12 -25 -20 0 -8 -4 -14 -9 -14 -16
0 0 37 27 62 45 41 92 68 92 53z m-67 -109 c4 -10 1 -13 -9 -9 -15 6 -19 23
-5 23 5 0 11 -7 14 -14z m-28 -36 c3 -5 1 -10 -4 -10 -6 0 -11 5 -11 10 0 6 2
10 4 10 3 0 8 -4 11 -10z m-37 -21 c-10 -17 -10 -23 0 -26 23 -9 12 -30 -18
-36 -21 -5 -28 -11 -24 -22 7 -17 -21 -21 -31 -4 -4 6 -13 8 -21 5 -8 -3 -14
-2 -14 2 0 17 28 46 46 48 11 1 28 14 38 28 24 31 41 35 24 5z m-123 -119 c3
-5 1 -10 -4 -10 -6 0 -11 5 -11 10 0 6 2 10 4 10 3 0 8 -4 11 -10z m201 -271
c21 -42 18 -79 -6 -79 -13 0 -22 9 -26 28 -4 15 -15 39 -26 54 -18 25 -18 27
-1 37 21 11 38 0 59 -40z m52 8 c16 -46 15 -77 -3 -77 -8 0 -15 7 -15 15 0 9
-7 29 -15 46 -9 16 -13 34 -10 39 12 20 31 9 43 -23z m-98 -75 l0 -35 -19 24
c-55 71 -64 144 -9 79 19 -23 28 -46 28 -68z m154 82 c3 -9 6 -31 6 -50 0 -42
-25 -47 -33 -6 -3 15 -8 37 -12 50 -6 18 -4 22 13 22 11 0 23 -7 26 -16z m-94
-124 c0 -5 -4 -10 -10 -10 -5 0 -10 5 -10 10 0 6 5 10 10 10 6 0 10 -4 10 -10z
m57 -36 c-3 -3 -12 -4 -19 -1 -8 3 -5 6 6 6 11 1 17 -2 13 -5z"/>
<path d="M47 1613 c-4 -3 -7 -11 -7 -17 0 -6 5 -5 12 2 6 6 9 14 7 17 -3 3 -9
2 -12 -2z"/>
<path d="M959 1134 c-10 -13 -10 -17 2 -25 32 -20 61 0 39 26 -16 19 -24 19
-41 -1z"/>
<path d="M895 1129 c-4 -6 -14 -8 -22 -4 -26 9 -102 -51 -103 -82 0 -18 47
-16 103 3 56 19 59 23 51 63 -7 32 -18 39 -29 20z"/>
<path d="M1147 1110 c7 -32 10 -34 60 -49 43 -12 83 -3 83 19 0 27 -71 61
-122 57 -23 -2 -26 -5 -21 -27z m123 -34 c0 -3 -4 -8 -10 -11 -5 -3 -10 -1
-10 4 0 6 5 11 10 11 6 0 10 -2 10 -4z"/>
<path d="M0 1051 c0 -50 5 -93 14 -109 7 -15 19 -54 26 -87 8 -35 21 -67 32
-76 21 -16 38 -99 20 -99 -5 0 -12 9 -15 20 -3 11 -10 20 -15 20 -6 0 -8 -29
-5 -78 6 -80 -5 -119 -45 -165 -20 -22 -12 -30 23 -21 20 5 23 9 13 15 -10 7
-9 16 10 48 12 22 22 47 22 56 0 8 9 41 20 73 22 60 20 99 -7 141 -13 21 -13
25 0 38 13 13 19 11 55 -21 21 -20 45 -36 51 -36 6 0 11 16 11 36 0 27 5 37
20 41 23 6 25 14 8 32 -10 11 -10 14 0 18 18 7 15 37 -7 64 -10 13 -16 30 -14
37 3 6 2 12 -2 12 -10 0 -69 -32 -94 -51 -36 -29 -51 -24 -51 16 0 41 -20 95
-50 132 l-20 26 0 -82z m77 -183 c-3 -8 -6 -5 -6 6 -1 11 2 17 5 13 3 -3 4
-12 1 -19z"/>
<path d="M1102 1100 c0 -14 2 -19 5 -12 2 6 2 18 0 25 -3 6 -5 1 -5 -13z"/>
<path d="M998 1085 c-10 -10 8 -70 21 -70 23 0 38 32 25 53 -12 18 -36 27 -46
17z"/>
<path d="M1180 1014 c0 -7 7 -14 15 -17 8 -4 18 -21 24 -39 7 -24 9 -27 10
-11 1 12 -10 35 -24 50 -13 15 -25 23 -25 17z"/>
<path d="M840 991 c0 -5 7 -14 15 -21 12 -10 15 -10 15 3 0 8 -7 17 -15 21 -8
3 -15 2 -15 -3z"/>
<path d="M1831 937 c-41 -54 -101 -101 -112 -90 -7 7 -22 0 -47 -23 -20 -19
-44 -34 -53 -34 -17 0 -53 -32 -79 -69 l-15 -22 -34 25 c-50 37 -54 32 -11
-13 39 -40 70 -126 70 -192 0 -55 -30 -200 -53 -252 -26 -59 -40 -67 -122 -70
-36 -2 -70 -8 -77 -15 -14 -14 -28 -16 -28 -4 0 4 16 24 36 45 20 20 33 37 29
37 -4 0 7 16 24 35 31 36 39 51 21 40 -6 -4 -10 6 -10 22 0 56 -17 57 -30 2
-19 -78 -56 -143 -116 -199 -53 -50 -48 -72 6 -26 20 16 37 22 54 19 36 -7 86
-73 86 -112 0 -17 5 -31 10 -31 21 0 9 58 -19 98 -16 22 -34 43 -40 47 -16 9
-13 22 6 30 13 4 28 -6 55 -37 34 -37 38 -48 38 -95 0 -36 4 -53 13 -53 11 0
13 22 8 85 0 11 -12 33 -26 49 -28 33 -28 50 1 54 13 1 27 -10 42 -34 21 -32
23 -44 17 -95 l-7 -59 37 0 c20 0 34 4 31 9 -4 5 -2 21 4 35 7 21 16 26 41 26
18 0 40 -6 48 -13 9 -8 35 -19 59 -26 23 -6 40 -16 37 -21 -4 -6 17 -10 49
-10 31 0 56 4 56 9 0 5 -8 8 -17 7 -14 -1 -19 10 -24 50 -4 29 -10 57 -13 63
-13 20 10 11 32 -12 14 -14 22 -36 22 -58 1 -29 2 -31 11 -16 9 15 18 17 45
12 26 -4 34 -3 34 9 0 8 -10 16 -22 18 -17 2 -24 11 -26 31 -3 24 -6 26 -19
15 -13 -11 -18 -9 -31 10 -8 12 -25 22 -38 22 -12 0 -29 7 -38 15 -17 17 -38
19 -51 6 -17 -16 -47 16 -52 54 -3 32 -1 37 27 46 19 7 30 18 30 29 0 11 5 22
10 25 17 10 11 32 -9 38 -40 10 -38 115 3 143 17 10 22 21 18 40 -4 24 -5 24
-23 8 -11 -10 -22 -15 -25 -11 -9 8 38 67 66 83 19 10 21 13 8 14 -22 0 -23 9
-2 25 10 6 18 25 20 40 4 37 9 41 84 68 l65 23 3 63 3 63 -30 -21 -29 -21 5
40 c7 48 -4 50 -36 7z m-202 -631 c25 -26 13 -46 -12 -21 -9 8 -23 12 -31 9
-22 -9 -20 -24 4 -24 23 0 38 -25 36 -60 -1 -21 -6 -25 -30 -23 -38 3 -46 12
-53 60 -10 76 39 110 86 59z m-81 -118 c22 -24 23 -28 8 -34 -11 -4 -26 1 -40
15 -12 11 -28 21 -34 21 -8 0 -3 12 10 31 19 26 24 28 26 12 2 -10 15 -30 30
-45z m129 -30 c12 -13 26 -41 32 -63 14 -51 14 -55 -3 -55 -7 0 -26 25 -41 55
-14 30 -33 55 -41 55 -15 0 -19 12 -7 23 13 14 40 7 60 -15z m-153 -16 c12
-23 12 -36 2 -77 -19 -74 -40 -73 -31 2 5 48 3 62 -9 72 -22 18 -20 31 4 31
11 0 25 -12 34 -28z m227 -12 c24 -33 30 -115 9 -115 -9 0 -16 11 -18 30 -3
25 -21 77 -40 108 -11 21 33 0 49 -23z m-115 -14 c49 -49 44 -79 -6 -36 -13
11 -36 20 -52 20 -30 0 -37 17 -16 38 20 20 38 14 74 -22z"/>
<path d="M1262 900 c0 -14 2 -19 5 -12 2 6 2 18 0 25 -3 6 -5 1 -5 -13z"/>
<path d="M1300 895 c0 -18 -4 -24 -12 -19 -10 5 -10 4 -1 -6 6 -7 16 -9 22 -6
14 9 14 43 1 51 -6 4 -10 -5 -10 -20z"/>
<path d="M993 893 c-12 -2 -40 -22 -62 -44 -35 -36 -40 -47 -46 -104 -4 -36
-5 -76 -1 -89 8 -34 74 -54 106 -34 12 7 11 8 -4 4 -11 -4 -24 0 -32 11 -21
28 -17 31 28 23 24 -5 47 -6 53 -3 5 2 2 -2 -8 -10 -15 -13 -13 -14 23 -14 34
0 38 2 23 12 -14 11 -12 13 20 17 31 3 37 1 37 -14 0 -10 4 -18 8 -18 31 0 72
106 72 185 0 64 -19 86 -76 84 -24 -1 -30 -3 -16 -6 13 -3 21 -10 19 -16 -4
-14 -117 -20 -117 -7 0 6 9 10 20 10 11 0 20 4 20 8 0 9 -34 11 -67 5z m-9
-154 c17 -8 33 -8 54 -1 39 13 65 -4 60 -39 -3 -22 -8 -24 -65 -27 -35 -2 -72
2 -83 8 -22 12 -26 40 -8 58 15 15 12 14 42 1z"/>
<path d="M831 863 c-1 -24 14 -39 24 -23 3 5 2 10 -4 10 -5 0 -12 8 -14 18 -4
13 -5 12 -6 -5z"/>
<path d="M1881 730 c-13 -11 -32 -20 -42 -20 -10 0 -19 -4 -19 -10 0 -5 5 -10
10 -10 19 0 90 40 90 50 0 15 -12 12 -39 -10z"/>
<path d="M7 665 c-6 -35 -1 -43 15 -27 8 8 8 18 1 34 -10 22 -10 22 -16 -7z"/>
<path d="M1848 636 c-10 -7 -18 -20 -18 -28 0 -8 -6 -20 -12 -27 -11 -12 -9
-13 7 -6 26 10 45 10 73 1 20 -7 22 -4 22 33 0 38 -2 41 -27 41 -16 0 -36 -7
-45 -14z"/>
<path d="M965 590 c-8 -13 45 -13 65 0 11 7 6 10 -22 10 -20 0 -40 -4 -43 -10z"/>
<path d="M1882 548 c3 -7 13 -15 23 -17 17 -3 17 -2 3 13 -20 19 -31 21 -26 4z"/>
<path d="M1285 520 c-4 -12 -5 -24 -2 -27 3 -2 8 5 12 17 4 12 5 24 2 27 -3 2
-8 -5 -12 -17z"/>
<path d="M1426 465 c-3 -8 -1 -15 4 -15 6 0 10 7 10 15 0 8 -2 15 -4 15 -2 0
-6 -7 -10 -15z"/>
<path d="M1710 445 c0 -8 2 -15 4 -15 2 0 6 7 10 15 3 8 1 15 -4 15 -6 0 -10
-7 -10 -15z"/>
<path d="M1785 418 c-10 -24 2 -55 16 -41 6 6 6 18 0 34 -8 21 -10 22 -16 7z"/>
<path d="M1731 404 c0 -11 3 -14 6 -6 3 7 2 16 -1 19 -3 4 -6 -2 -5 -13z"/>
<path d="M1406 394 c-4 -9 -4 -19 -1 -22 2 -3 7 3 11 12 4 9 4 19 1 22 -2 3
-7 -3 -11 -12z"/>
<path d="M3 345 c0 -27 2 -38 4 -22 2 15 2 37 0 50 -2 12 -4 0 -4 -28z"/>
<path d="M1761 374 c0 -11 3 -14 6 -6 3 7 2 16 -1 19 -3 4 -6 -2 -5 -13z"/>
<path d="M1416 328 l-17 -33 20 24 c18 20 27 41 18 41 -1 0 -11 -15 -21 -32z"/>
<path d="M1806 321 c-4 -7 -5 -15 -2 -18 9 -9 19 4 14 18 -4 11 -6 11 -12 0z"/>
<path d="M81 313 c-1 -6 -4 -20 -7 -30 -5 -17 -5 -17 6 0 6 10 9 23 6 30 -3 9
-5 9 -5 0z"/>
<path d="M1741 305 c-1 -32 16 -52 31 -37 9 9 9 12 0 12 -7 0 -17 10 -22 23
-8 20 -9 20 -9 2z"/>
<path d="M645 300 c-3 -5 -2 -10 4 -10 5 0 13 5 16 10 3 6 2 10 -4 10 -5 0
-13 -4 -16 -10z"/>
<path d="M1844 276 c1 -37 26 -67 26 -31 0 9 -4 14 -9 10 -5 -3 -12 9 -14 27
-4 28 -4 27 -3 -6z"/>
<path d="M1369 273 c-13 -16 -12 -17 4 -4 16 13 21 21 13 21 -2 0 -10 -8 -17
-17z"/>
<path d="M26 265 c-9 -26 -7 -32 5 -12 6 10 9 21 6 23 -2 3 -7 -2 -11 -11z"/>
<path d="M132 230 c0 -14 2 -19 5 -12 2 6 2 18 0 25 -3 6 -5 1 -5 -13z"/>
<path d="M116 185 c-9 -26 -7 -32 5 -12 6 10 9 21 6 23 -2 3 -7 -2 -11 -11z"/>
<path d="M0 65 l0 -65 31 0 c26 0 30 3 24 18 -4 9 -15 38 -24 64 -9 26 -19 48
-23 48 -5 0 -8 -29 -8 -65z"/>
<path d="M680 20 c0 -10 179 -25 187 -16 4 3 4 8 2 10 -8 7 -189 13 -189 6z"/>
<path d="M930 10 c0 -5 11 -10 25 -10 14 0 25 5 25 10 0 6 -11 10 -25 10 -14
0 -25 -4 -25 -10z"/>
<path d="M1225 10 c-18 -8 -17 -9 8 -9 16 -1 26 3 22 9 -3 6 -7 10 -8 9 -1 0
-11 -4 -22 -9z"/>
<path d="M1098 3 c6 -2 18 -2 25 0 6 3 1 5 -13 5 -14 0 -19 -2 -12 -5z"/>
<path d="M1598 3 c18 -2 45 -2 60 0 15 2 0 4 -33 4 -33 0 -45 -2 -27 -4z"/>
</g>
</svg>
